HIERARCHY
ROOT Hips
{
	OFFSET 0.000000 0.000000 0.000000 
	CHANNELS 6 Xposition Yposition Zposition Zrotation Yrotation Xrotation
	JOINT LeftUpLeg
	{
		OFFSET 1.363060 -1.794630 0.839290 
		CHANNELS 3 Zrotation Yrotation Xrotation
		JOINT LeftLeg
		{
			OFFSET 2.448110 -6.726130 0.000000 
			CHANNELS 3 Zrotation Yrotation Xrotation
			JOINT LeftFoot
			{
				OFFSET 2.562200 -7.039590 0.000000 
				CHANNELS 3 Zrotation Yrotation Xrotation
				JOINT LeftToeBase
				{
					OFFSET 0.157640 -0.433110 2.322550 
					CHANNELS 3 Zrotation Yrotation Xrotation
					End Site
					{
						OFFSET 0.000000 0.000000 0.000000 
					}
				}
			}
		}
	}
	JOINT RightUpLeg
	{
		OFFSET -1.305520 -1.794630 0.839290 
		CHANNELS 3 Zrotation Yrotation Xrotation
		JOINT RightLeg
		{
			OFFSET -2.542530 -6.985550 0.000000 
			CHANNELS 3 Zrotation Yrotation Xrotation
			JOINT RightFoot
			{
				OFFSET -2.568260 -7.056230 0.000000 
				CHANNELS 3 Zrotation Yrotation Xrotation
				JOINT RightToeBase
				{
					OFFSET -0.164730 -0.452590 2.363150 
					CHANNELS 3 Zrotation Yrotation Xrotation
					End Site
					{
						OFFSET 0.000000 0.000000 0.000000 
					}
				}
			}
		}
	}
	JOINT Spine
	{
		OFFSET 0.028270 2.035590 -0.193380 
		CHANNELS 3 Zrotation Yrotation Xrotation
		JOINT Spine1
		{
			OFFSET 0.056720 2.048850 -0.042750 
			CHANNELS 3 Zrotation Yrotation Xrotation
			JOINT Neck1
			{
				OFFSET -0.054170 1.746240 0.172020 
				CHANNELS 3 Zrotation Yrotation Xrotation
				JOINT Head
				{
					OFFSET 0.104070 1.761360 -0.123970 
					CHANNELS 3 Zrotation Yrotation Xrotation
					End Site
					{
						OFFSET 0.000000 0.000000 0.000000 
					}
				}
			}
			JOINT LeftArm
			{
				OFFSET 3.362410 1.200890 -0.311210 
				CHANNELS 3 Zrotation Yrotation Xrotation
				JOINT LeftForeArm
				{
					OFFSET 4.983000 -0.000000 -0.000000 
					CHANNELS 3 Zrotation Yrotation Xrotation
					JOINT LeftHand
					{
						OFFSET 3.483560 -0.000000 -0.000000 
						CHANNELS 3 Zrotation Yrotation Xrotation
						JOINT LeftHandIndex1
						{
							OFFSET 0.715260 -0.000000 -0.000000 
							CHANNELS 3 Zrotation Yrotation Xrotation
							End Site
							{
								OFFSET 0.000000 0.000000 0.000000 
							}
						}
					}
				}
			}
			JOINT RightArm
			{
				OFFSET -3.136600 1.374050 -0.404650 
				CHANNELS 3 Zrotation Yrotation Xrotation
				JOINT RightForeArm
				{
					OFFSET -5.241900 -0.000000 -0.000000 
					CHANNELS 3 Zrotation Yrotation Xrotation
					JOINT RightHand
					{
						OFFSET -3.444170 -0.000000 -0.000000 
						CHANNELS 3 Zrotation Yrotation Xrotation
						JOINT RightHandIndex1
						{
							OFFSET -0.622530 -0.000000 -0.000000 
							CHANNELS 3 Zrotation Yrotation Xrotation
							End Site
							{
								OFFSET 0.000000 0.000000 0.000000 
							}
						}
					}
				}
			}
		}
	}
}
MOTION
Frames: 17
Frame Time: 0.041667
0.653968 17.890938 -4.793153 -3.818949 2.720763 -0.452048 -11.726511 -1.525415 -1.539338 0.852242 6.942217 18.597055 0.744129 -3.872892 -5.502826 0.456100 -4.332400 -12.013700 21.763940 -0.801485 -2.054243 -1.764943 -7.808431 19.798121 0.077881 -4.700136 -10.440469 -0.634900 5.098100 -14.188700 3.141836 0.040151 0.054001 4.566274 0.351646 -6.041087 7.794973 -5.814009 15.596049 6.182400 -3.107200 12.094100 -91.190633 -5.987765 24.988164 23.382178 -35.791366 -6.286234 1.406577 1.310872 -8.095861 -7.125000 0.000000 0.000000 96.903347 -7.034923 21.437670 -23.235582 35.030310 -6.866634 -0.037082 0.640693 -5.450910 7.125000 0.000000 0.000000 
0.650343 17.889468 -4.797465 -4.022431 2.713460 -0.444908 -11.458823 -1.477206 -1.635616 0.857688 6.962653 18.650640 0.748566 -3.929434 -5.437500 0.443100 -4.270900 -11.840000 22.054476 -0.589903 -1.980931 -1.763006 -7.790628 19.761104 0.100573 -4.917224 -10.509764 -0.615400 5.020700 -13.967700 3.201154 0.050656 0.130992 4.559508 0.354364 -5.980893 7.724548 -5.820608 15.688002 6.141400 -3.105400 12.195900 -91.288728 -6.015267 25.427692 24.176693 -36.755365 -6.811693 1.389305 1.266335 -8.642574 -7.125000 0.000000 0.000000 96.878789 -6.668675 21.709188 -23.324611 35.134538 -6.906408 -0.020232 0.648325 -5.069997 7.125000 0.000000 0.000000 
0.649167 17.888391 -4.800405 -4.150664 2.719096 -0.451180 -11.290809 -1.477182 -1.660893 0.860112 6.973783 18.676964 0.755703 -3.993546 -5.427932 0.434000 -4.227400 -11.717400 22.241002 -0.446362 -1.958237 -1.764773 -7.787168 19.763486 0.123499 -5.120885 -10.524228 -0.628600 5.073300 -14.117700 3.230793 0.057952 0.196016 4.531516 0.352012 -5.892523 7.772158 -5.823947 15.640141 6.163300 -3.099500 12.194900 -91.415819 -6.099573 25.684100 24.623513 -37.317634 -7.158924 1.393971 1.177271 -8.923607 -7.125000 0.000000 0.000000 96.886620 -6.369239 21.931701 -23.600097 35.463868 -7.083458 -0.030173 0.643704 -5.012697 7.125000 0.000000 0.000000 
0.657398 17.888880 -4.794623 -3.975950 2.762262 -0.438455 -11.528343 -1.534881 -1.609370 0.859261 6.966915 18.664633 0.751507 -3.956742 -5.439239 0.434600 -4.230600 -11.726400 21.991255 -0.556507 -2.007846 -1.770146 -7.815325 19.833038 0.109980 -5.019191 -10.557788 -0.639500 5.116100 -14.240000 3.173537 0.006942 0.207222 4.493987 0.322460 -5.826407 7.862987 -5.807939 15.633150 6.215300 -3.090700 12.177400 -91.526667 -5.931017 25.940273 25.262191 -38.049816 -7.598258 1.385121 1.123966 -9.296073 -7.125000 0.000000 0.000000 96.907739 -6.176981 22.271793 -24.071200 36.017961 -7.404785 -0.062972 0.626213 -5.330307 7.125000 0.000000 0.000000 
0.666805 17.889272 -4.787764 -3.652177 2.866269 -0.382136 -11.946345 -1.635636 -1.558358 0.853528 6.940955 18.605042 0.746160 -3.909450 -5.458400 0.443300 -4.272200 -11.843700 21.551051 -0.732214 -2.133407 -1.779121 -7.859979 19.946167 0.089707 -4.878472 -10.645940 -0.651800 5.164300 -14.377700 3.081703 -0.082780 0.211558 4.502316 0.277761 -5.733897 7.791723 -5.795177 15.619047 6.175200 -3.090000 12.132300 -91.663016 -5.666292 26.123045 25.922500 -38.716679 -7.952346 1.359885 1.199717 -9.466559 -7.125000 0.000000 0.000000 96.931715 -6.152478 22.629816 -24.702818 36.734679 -7.826292 -0.096069 0.605823 -5.793592 7.125000 0.000000 0.000000 
0.672978 17.888293 -4.790018 -3.501155 2.804684 -0.303131 -12.148829 -1.660283 -1.584756 0.846526 6.915185 18.538707 0.738172 -3.835699 -5.473082 0.447300 -4.291000 -11.896900 21.348094 -0.676267 -2.270930 -1.791812 -7.889765 20.041353 0.086297 -4.846972 -10.625140 -0.672200 5.242900 -14.602600 3.044348 -0.066161 0.212195 4.526533 0.288982 -5.706636 7.663356 -5.818143 15.591918 6.103200 -3.108400 12.092100 -91.917142 -5.613225 26.188359 26.235908 -39.021710 -8.110360 1.341724 1.247989 -9.368364 -7.125000 0.000000 0.000000 96.923622 -6.173521 22.892675 -25.464446 37.571209 -8.340092 -0.147247 0.573727 -6.485274 7.125000 0.000000 0.000000 
0.684050 17.886333 -4.791292 -3.459599 2.757805 -0.241188 -12.246618 -1.686622 -1.624663 0.844956 6.906014 18.518933 0.728343 -3.740355 -5.504001 0.453300 -4.319100 -11.976300 21.241438 -0.698970 -2.354506 -1.794137 -7.889928 20.045226 0.076447 -4.733243 -10.537537 -0.681200 5.277200 -14.701000 3.025410 -0.049899 0.179494 4.465955 0.296282 -5.761351 7.674610 -5.843695 15.574857 6.114700 -3.126200 12.071700 -92.166599 -5.512596 26.349320 26.513406 -39.395683 -8.433095 1.336189 1.091953 -9.564017 -7.125000 0.000000 0.000000 96.896241 -6.205828 22.967399 -25.737066 37.860332 -8.515582 -0.154676 0.567846 -6.463035 7.125000 0.000000 0.000000 
0.695613 17.886235 -4.785510 -3.567004 2.908315 -0.255824 -12.169757 -1.767103 -1.589904 0.848164 6.916764 18.548481 0.732501 -3.767930 -5.532841 0.460000 -4.350700 -12.065500 21.303831 -0.908124 -2.321943 -1.781882 -7.864967 19.962681 0.069162 -4.672418 -10.561751 -0.686000 5.295300 -14.752700 3.041951 -0.124328 0.116524 4.347469 0.252797 -5.859988 7.774757 -5.850347 15.519756 6.183100 -3.141500 11.986400 -92.295653 -5.083698 26.924706 27.139644 -39.928918 -8.697707 1.347236 1.229247 -9.990715 -7.125000 0.000000 0.000000 96.841935 -6.416888 23.059713 -25.595935 37.693969 -8.394650 -0.111116 0.592298 -5.745938 7.125000 0.000000 0.000000 
0.701688 17.888391 -4.780121 -3.851078 2.962900 -0.331374 -11.862011 -1.762867 -1.531651 0.853501 6.940858 18.604337 0.742821 -3.849988 -5.545942 0.449600 -4.301700 -11.927100 21.620387 -0.964586 -2.182345 -1.768480 -7.829396 19.856805 0.077750 -4.748224 -10.584635 -0.697100 5.337000 -14.872300 3.095477 -0.136954 0.062771 4.218448 0.239748 -5.981242 7.850592 -5.884482 15.477793 6.232700 -3.169600 11.908400 -92.442546 -4.687379 27.444335 27.683214 -40.498481 -9.137323 1.329135 1.153292 -10.592001 -7.125000 0.000000 0.000000 96.800946 -6.599894 23.199456 -25.552129 37.633984 -8.347337 -0.087592 0.604498 -5.333546 7.125000 0.000000 0.000000 
0.705020 17.889174 -4.778161 -3.987655 2.882446 -0.397608 -11.710127 -1.673138 -1.503196 0.858027 6.958064 18.646525 0.749117 -3.899956 -5.557838 0.438500 -4.249000 -11.778100 21.788175 -0.877631 -2.035589 -1.759920 -7.805086 19.781157 0.088941 -4.832937 -10.543880 -0.696500 5.335000 -14.866500 3.113150 -0.102574 0.035485 4.145387 0.257140 -6.119742 7.784807 -5.898724 15.619138 6.200500 -3.182900 11.985400 -92.673718 -4.514782 27.680860 28.042781 -40.911012 -9.493543 1.303634 1.038388 -10.734520 -7.125000 0.000000 0.000000 96.780885 -6.616407 23.391260 -25.659120 37.743413 -8.413899 -0.089937 0.604492 -5.282005 7.125000 0.000000 0.000000 
0.707959 17.887019 -4.774928 -3.926221 2.860573 -0.394173 -11.776031 -1.594425 -1.530661 0.859651 6.960152 18.656372 0.759527 -3.989373 -5.575376 0.455800 -4.331100 -12.010200 21.725945 -0.808753 -1.985391 -1.759333 -7.808388 19.783666 0.094253 -4.891584 -10.571853 -0.686400 5.296900 -14.757400 3.097153 -0.110817 0.029363 4.160913 0.258140 -6.159403 7.631349 -5.885993 15.777262 6.122500 -3.185300 12.070800 -92.942655 -4.424812 27.813381 28.433396 -41.285133 -9.750128 1.302540 1.036716 -10.460012 -7.125000 0.000000 0.000000 96.771165 -6.618771 23.565985 -25.856581 37.951443 -8.544338 -0.097056 0.600745 -5.436420 7.125000 0.000000 0.000000 
0.711781 17.885059 -4.770028 -3.786427 2.854776 -0.347696 -11.942126 -1.577334 -1.574870 0.859902 6.956102 18.652238 0.764061 -4.017293 -5.622395 0.477400 -4.431100 -12.292700 21.556024 -0.751749 -2.021683 -1.769411 -7.839989 19.874897 0.087786 -4.860059 -10.640226 -0.674600 5.252100 -14.629100 3.064831 -0.145582 0.031776 4.202445 0.242477 -6.102637 7.667266 -5.865373 15.700772 6.147700 -3.180500 11.990400 -93.212449 -4.168577 28.011851 29.049025 -41.843339 -10.137478 1.293980 1.061678 -10.337092 -7.125000 0.000000 0.000000 96.778880 -6.634579 23.637566 -25.981464 38.085852 -8.629897 -0.091746 0.598742 -5.601340 7.125000 0.000000 0.000000 
0.715896 17.885353 -4.769636 -3.677642 2.764241 -0.305453 -12.080439 -1.537454 -1.628540 0.858850 6.950493 18.640703 0.757897 -3.966514 -5.612882 0.471800 -4.405300 -12.219700 21.421779 -0.633128 -2.127934 -1.784212 -7.872095 19.981064 0.091174 -4.878409 -10.591053 -0.708000 5.378000 -14.989800 3.035088 -0.154696 0.083405 4.214835 0.233881 -6.003255 7.896780 -5.822040 15.590199 6.273100 -3.149200 11.932300 -93.446738 -3.864356 28.250331 29.702796 -42.447964 -10.606457 1.275115 1.038789 -10.426768 -7.125000 0.000000 0.000000 96.789754 -6.449850 23.690254 -26.012304 38.127017 -8.656524 -0.084167 0.597915 -5.866234 7.125000 0.000000 0.000000 
0.720110 17.885255 -4.771008 -3.706071 2.530941 -0.294286 -12.063816 -1.362131 -1.660098 0.853412 6.936393 18.594952 0.749009 -3.905016 -5.550201 0.457300 -4.338300 -12.030300 21.464720 -0.371346 -2.166619 -1.797084 -7.890348 20.053580 0.107272 -4.997198 -10.513129 -0.760700 5.569900 -15.541300 3.030576 -0.060365 0.153292 4.164735 0.275893 -5.974381 8.027741 -5.814476 15.659950 6.344500 -3.134800 12.022600 -93.717620 -3.853971 28.536019 29.896685 -42.638010 -10.776025 1.278732 0.997964 -10.238777 -7.125000 0.000000 0.000000 96.809459 -6.189495 23.702318 -26.022364 38.144766 -8.668214 -0.089322 0.596146 -6.048722 7.125000 0.000000 0.000000 
0.727851 17.884961 -4.762091 -3.675457 2.352157 -0.371825 -12.142811 -1.224381 -1.523093 0.845408 6.914926 18.524577 0.743762 -3.842401 -5.595556 0.452300 -4.314800 -11.963900 21.411456 -0.217294 -1.977842 -1.800110 -7.913086 20.100770 0.100837 -4.974836 -10.618881 -0.730100 5.459300 -15.223300 2.999341 0.035539 0.263085 4.072830 0.315984 -5.904245 7.920926 -5.880622 15.767733 6.279000 -3.161100 12.153200 -94.047335 -4.032755 28.871583 29.929266 -42.664703 -10.795912 1.294868 0.997413 -9.866545 -7.125000 0.000000 0.000000 96.852927 -5.936908 23.696587 -26.015634 38.141890 -8.666781 -0.102629 0.594721 -6.053513 7.125000 0.000000 0.000000 
0.736474 17.883883 -4.744356 -3.561425 2.329292 -0.462642 -12.324090 -1.176933 -1.299539 0.841068 6.901716 18.480691 0.746906 -3.823884 -5.742535 0.458400 -4.343200 -12.044300 21.240795 -0.238460 -1.753840 -1.794933 -7.930323 20.111702 0.084213 -4.874555 -10.752443 -0.661500 5.201700 -14.484700 2.946170 0.056346 0.404888 3.989488 0.316905 -5.683165 7.675897 -5.863332 15.879349 6.144600 -3.153500 12.252800 -94.330933 -3.992156 29.235497 30.253734 -42.936306 -10.995675 1.295724 1.027119 -9.844394 -7.125000 0.000000 0.000000 96.903945 -5.701523 23.684117 -25.962524 38.091024 -8.633249 -0.109350 0.596029 -6.030506 7.125000 0.000000 0.000000 
0.742255 17.880258 -4.728286 -3.481475 2.272861 -0.484780 -12.446409 -1.089416 -1.176132 0.840620 6.898778 18.470328 0.743804 -3.764896 -5.844058 0.466800 -4.382100 -12.154200 21.129996 -0.213170 -1.617591 -1.787866 -7.925277 20.073571 0.079428 -4.840255 -10.763276 -0.635200 5.099300 -14.191900 2.899327 0.085257 0.437462 3.924297 0.328016 -5.561522 7.458988 -5.732145 16.015602 6.046600 -3.108500 12.264400 -94.578907 -3.628025 29.520396 30.521255 -43.167273 -11.202870 1.289450 1.011411 -9.936236 -7.125000 0.000000 0.000000 96.923452 -5.800279 23.700526 -25.980988 38.108566 -8.644586 -0.110707 0.596382 -6.043145 7.125000 0.000000 0.000000 
